<svg xmlns="http://www.w3.org/2000/svg" version="1.1" width="600px" height="600px" viewBox="0 0 200 200" style="overflow:hidden!important;"><g id="svga-group-wrapper"><g id="svga-group-backs-single"><path id="SvgjsPath11977" d="M0 0h200v200H0V0z" fill="#ecf0f1" stroke-width="none" opacity="1"></path></g><g id="svga-group-humanwrap-move" transform="matrix(1,0,0,1,0,0)"><g id="svga-group-humanwrap"><g id="svga-group-hair-back-move" transform="matrix(1,0,0,1,0,0)"><g id="svga-group-hair-back"><path id="SvgjsPath12279" d="M134.2 50.7s5.7 1.1 10.5 12 2.8 23.4 2.2 32.1-2 36-10.9 49.8-13.1 14.6-23.4 18.4c-10.3 3.7-36.5 2.6-47.6-7.4-11.1-10.1-6.5-26.9-3.7-33 2.8-6.2 72.9-71.9 72.9-71.9" fill="#d13a06" stroke-width="none" opacity="1"></path><path id="SvgjsPath12280" d="M71.2 121.7s-2.8 7.1-3.4 12c-.6 4.9 2.6 9.5 4.5 12.1 2.1 2.8 6 7.6 6.1 17.2.1 6 41.6-5.5 41.6-5.5 3.7-2.9 11.1-9.6 15.6-20.9 3.8-9.5 3.8-17.8 3.5-22.4-17.2 6.2-34.5 12.5-51.7 18.7l-2.8-4.3-13.4-6.9z" fill="#ca3300" stroke-width="none" opacity="1"></path></g></g><g id="svga-group-humanbody-back"><path id="SvgjsPath12050" d="m168.5 219.5-1.7-21.5s.7-9-8.8-15.3-23.4-10.1-29.5-14.2c-6.1-4.1-9.2-4.5-9-16.9s.9-40.3.9-40.3H79.6s.7 27.9.9 40.3c.2 12.4-2.9 12.8-9 16.9-6.1 4.1-20 7.9-29.5 14.2S33.2 198 33.2 198l-1.6 21.5h136.9z" fill="#f3d4cf" stroke-width="none" opacity="1"></path></g><g id="svga-group-chinshadow-single"><path id="SvgjsPath12046" d="M80.4 155.4c5.9 5.8 12.6 9.3 19.6 9.3s13.7-3.5 19.6-9.3c-.1-1.1-.1-2.4-.1-3.8.2-12.4.9-40.3.9-40.3H79.6s.7 27.9.9 40.3c0 1.4 0 2.7-.1 3.8z" fill="#d4958a" stroke-width="none" opacity="0.65"></path></g><g id="svga-group-humanbody-front"><path id="SvgjsPath12051" d="M73.8 175.9c5.1 2.9 11.8 5.2 17.6 5.7.4 0 .4-.6.1-.7-2.8-1.1-5.9-1.7-8.8-2.6-2.9-.9-5.8-2-8.8-2.7-.1-.1-.3.2-.1.3zm35.2 6.2c5.3-.6 11.3-3 15.9-5.8.3-.2.1-.6-.2-.5-2.6.9-5.2 2-7.8 2.9-2.6.9-5.4 1.5-8 2.5-.5.1-.5.9.1.9z" fill="#d4958a" stroke-width="none" opacity="1"></path><path id="SvgjsPath12052" d="m168.4 219.4-2.1-21.4c0-2.2-.5-4.5-1.5-6.6-.9-2.1-2.3-3.9-3.9-5.5s-3.5-2.8-5.5-4c-2-1.2-4.1-2.2-6.2-3.1-4.2-1.9-8.6-3.6-12.9-5.4-2.2-.9-4.3-1.9-6.4-3-1.1-.6-2.1-1.2-3-1.9-1-.6-2-1.2-3-1.9s-2-1.5-2.8-2.6c-.8-1-1.3-2.2-1.7-3.4-.7-2.4-.8-4.8-.8-7.2 0-4.7.2-9.4.3-14.1.2-9.4.6-18.7.9-28l.6.6-20.4-.2-20.4-.1.3-.3.7 28c.1 4.7.3 9.3.4 14 0 2.4-.1 4.7-.8 7.1-.3 1.2-.9 2.3-1.6 3.3-.8 1-1.7 1.8-2.7 2.5s-2 1.3-2.9 2c-.9.6-1.9 1.3-3 1.9-2.1 1.2-4.2 2.1-6.4 3.1-4.3 1.9-8.6 3.6-12.8 5.6-2.1 1-4.2 2.1-6.1 3.2-2 1.2-3.8 2.4-5.4 4-1.6 1.6-2.9 3.4-3.8 5.4-.4 1-.8 2.1-1 3.1-.2 1.1-.4 2.2-.3 3.2v.2l-1.5 21.5-1-1.1 34 .1c11.3 0 22.7.1 34.1.2l34.2.3 34.4.5zm.2.2-34 .4-34.2.3c-11.4.1-22.9.2-34.4.2l-34.4.1h-1.1l.1-1.1 1.7-21.5v.1c-.1-5.1 2.2-9.8 5.7-13.3 1.7-1.7 3.8-3.1 5.8-4.3 2-1.2 4.2-2.2 6.3-3.2 4.3-2 8.7-3.7 13-5.4 2.1-.9 4.3-1.8 6.3-2.9 1-.5 1.9-1.1 3-1.8 1-.6 2-1.2 2.9-1.9.9-.6 1.8-1.4 2.4-2.2.7-.9 1.2-1.9 1.5-2.9.6-2.1.8-4.5.8-6.8 0-4.6-.1-9.3-.2-14l-.6-28v-.3h.3l20.4-.1 20.4-.2h.6v.6c-.1 9.3-.2 18.7-.4 28-.1 4.7-.2 9.4-.2 14 .1 2.3.2 4.6.8 6.7.3 1.1.8 2 1.4 2.9.6.8 1.4 1.6 2.4 2.2.9.6 1.9 1.3 2.9 1.9 1 .7 1.9 1.3 2.9 1.8 2 1.1 4.1 2.1 6.3 3 4.3 1.8 8.6 3.6 12.9 5.6 2.1 1 4.2 2.1 6.2 3.3 2 1.2 4 2.6 5.7 4.3 3.4 3.4 5.6 8.1 5.4 13v-.1l1.4 21.6zm-112.8-.4 1.9-13.8.1 13.8h-2zm88.6 0-1.9-13.8-.1 13.8h2z" fill="#c5796d" stroke-width="none" opacity="1"></path></g><g id="svga-group-clothes-single"><path id="SvgjsPath12194" d="m122.4 220 2.7-26.8s-14.3 16-25 19.1c0 0-16.5-9.3-26.3-19.1l3.9 26.8h44.7z" fill="#efefef" stroke-width="none" opacity="1"></path><path id="SvgjsPath12195" d="M125.3 192.9c-.2-.2-.4-.1-.6 0a147.859 147.859 0 0 1-11.5 10.9c-2 1.7-4.1 3.3-6.3 4.8-2.2 1.4-4.5 2.7-6.9 3.5-2.3-1.3-4.6-2.7-6.9-4.2-2.3-1.5-4.5-3-6.7-4.6-4.4-3.2-8.6-6.6-12.4-10.4-.1-.1-.2-.1-.3-.1-.2 0-.3.2-.3.4.6 4.5 1.2 8.9 1.8 13.4.6 4.5 1.2 8.9 1.9 13.4 0 .2.3.4.5.4h11.3l11.2-.1 11.2-.1 11.1-.2 1.6-13.3 1.5-13.5c0-.1-.1-.2-.2-.3zm-1.9 13.5-1.1 13.5-11.3-.2-11.2-.1-11.2-.1H77.9c-.6-4.3-1.3-8.6-1.9-13-.6-4.1-1.2-8.2-1.9-12.3 3.7 3.5 7.8 6.6 11.9 9.5 2.2 1.6 4.5 3.1 6.8 4.5s4.6 2.9 7 4.3h.1c2.6-.8 4.9-2 7.2-3.4s4.4-3 6.5-4.6c2.1-1.7 4.1-3.4 6-5.3 1.6-1.5 3.2-3.2 4.7-4.8-.2 4-.5 8-.9 12z" fill="#01606f" stroke-width="none" opacity="1"></path><path id="SvgjsPath12196" d="M75.7 167.9s1.2-3.7 1.7-6.4c.6-2.7.4-9.3.4-9.3s-1.9 4.1-4.6 6.4-13.2 9.1-13.2 9.1l2.3 1.6S37.7 178 36 179.2c-1.7 1.2-1.9 3.7-1.9 3.7l-2.1.6c-4.1 16.8-4.1 36.6-4.1 36.6h54.5s-2.3-16.6-3.3-23c-.9-6.5-3.4-29.2-3.4-29.2zm92.7 15.5-2.1-.6s-.2-2.5-1.9-3.7c-1.7-1.2-26.3-9.9-26.3-9.9l2.3-1.6s-10.4-6.8-13.2-9.1c-2.7-2.3-4.6-6.4-4.6-6.4s-.2 6.6.4 9.3 1.7 6.4 1.7 6.4-2.5 22.6-3.5 29c-1 6.4-3.3 23-3.3 23h54.5c0 .2 0-19.5-4-36.4z" fill="#1e7e8e" stroke-width="none" opacity="1"></path><path id="SvgjsPath12197" d="M140.3 179c-1.8-1.9-4.2-3.2-6.2-5-2-1.8-3.6-3.9-5.4-5.9-.2-.2-.6.1-.4.3 1.3 2.5 3.1 4.7 5.1 6.7 1.7 1.7 3.9 3.9 6.3 4.7-5.2 9.5-8.4 21.2-9.6 31.9 0 .2.3.3.4.1 1.2-5.5 2.2-11 3.9-16.4 1.6-5.4 4.1-10.4 6.1-15.7.1-.1 0-.2-.1-.3.1-.1 0-.2-.1-.4zm-2-11.9c-2.1-1.2-4.3-2.2-6.3-3.6-2.2-1.5-4.2-3.3-6.1-5.2-.2-.2-.4.1-.2.2 3.1 3.9 7.5 7.8 12.4 9.1.3.2.5-.3.2-.5zm18.9 10.5c-5.7-2.4-11.6-4.6-17.5-6.4-.2-.1-.3.2-.1.3 3.5 1.7 7.1 3.3 10.7 4.8 4.6 1.9 10.2 3.1 12.7 7.8.2.4.8.1.7-.3-.6-3.5-3.5-5-6.5-6.2zm9.5 8.4c-.1-.4-.7-.3-.7.1.7 5.4 1.9 10.6 2.5 16 .6 5.4.4 10.9 1.1 16.2 0 .4.5.4.6 0 1.2-9.9-.4-22.8-3.5-32.3zm-92.6-16.9c.5-1 .6-2.2.8-3.3.3-1.2.7-2.4 1-3.6.1-.2-.2-.3-.3-.1-.7 1-1.1 2.1-1.6 3.2-.4 1.1-.9 2.4-.8 3.6.1.4.7.7.9.2zm-.3 1.6c0-.1-.2-.1-.2 0-.1 6.5 1.2 13.2 2.2 19.7 1 7.1 2.1 14.3 4 21.3 0 .1.1 0 .1 0-.7-6.6-1.8-13.1-2.8-19.6-1.2-7-1.5-14.4-3.3-21.4zm-5.1 0c-2.8 3.1-5.4 5.9-8.8 8.3-.4.3-.3.9.1 1 1.4 4.4 3.4 8.5 4.8 12.9 1.4 4.5 2.3 9.2 3.5 13.7.1.3.5.2.5-.1-.5-8.7-3.2-19.2-7.9-26.7 3.3-2.3 6.5-5.2 8.4-8.7 0-.4-.4-.7-.6-.4zm-32.6 11.1c1.3 5.7 3.9 11.4 5.9 16.9.1.3.5.2.5-.1-1.1-5.6-2.6-12.2-5.6-17.1-.4-.4-.9-.1-.8.3z" fill="#318e9d" stroke-width="none" opacity="1"></path><path id="SvgjsPath12198" d="M80.7 200.4c-.3-2.2-.6-4.3-.9-6.5-1.1-8.6-2.2-17.3-3.4-25.9.4-1.2.7-2.5 1-3.7.1-.3.2-.6.2-.9.3-.4.9-1.1 1.3-2 .6-1.4 1.1-3.8 1.2-6.2s0-4.8 0-4.8-2.4 1.1-2.5 1.8c-.9 1.8-1.9 3.4-3.2 4.9-1.2 1.5-2.9 2.6-4.5 3.8-3 2.1-6 4.1-9.2 6-.3.2-.6.3-.9.5l-.1.1c-.2.2-.1.5.1.6.4.3.8.6 1.2.8l.2.2c-4.8 1.6-9.6 3.2-14.4 4.9-2.5.9-5.1 1.8-7.6 2.8l-1.9.8-1 .4c-.3.2-.7.3-1 .6-.7.5-1.2 1.2-1.5 1.9-.2.5-.4 1.1-.5 1.6l-1.6.4c-.3.1-.5.3-.6.6-1.4 6-2.2 12.2-2.8 18.3-.2 3.1-.5 6.1-.5 9.2 0 1.5-.1 3.1-.1 4.6v4.6l27 .6 13.8.2c4.6.1 9.2.1 13.8.1h.2c.6-.1 1-.6.9-1.2l-1.8-13-.9-6.1zM28 219.9c.1-.1 0-.3.1-.5v-.6l.1-1.1.1-2.3c.1-1.5.2-3.1.4-4.6.3-3.1.6-6.1 1-9.1s.9-6.1 1.4-9.1c.5-2.9 1.1-5.7 1.8-8.5l1.6-.4h.1c.5 1.2 1.1 2.4 1.5 3.7l.9 2.2.8 2.3c1 3 1.9 6.1 2.6 9.2.8 3.1 1.4 6.2 2 9.4.3 1.6.5 3.2.7 4.8.2 1.4.4 2.9.5 4.4l-15.6.2zm41-.8-13.5.2-12 .3c0-3.1-.2-6.2-.6-9.2-.4-3.2-1-6.4-1.7-9.5-.8-3.1-1.7-6.2-2.9-9.2-1-2.8-2.3-5.4-3.8-8 .2-.1.4-.4.4-.6.1-1.1.6-2.3 1.4-2.9.2-.2.4-.2.7-.4l.9-.4 1.9-.8 7.5-2.9 15-5.7c1.2.6 2.5 1.1 3.9 1.5-.5.4-1 .9-1.5 1.3-1.2 1-2.5 2-3.7 3-1.3.9-2.6 1.8-3.9 2.6-.4.2-.5.7-.4 1.1 1.3 3.3 2.6 6.6 3.8 9.9 1.2 3.3 2.3 6.7 3.5 10.1 1.1 3.4 2.1 6.8 3.1 10.2.9 3.1 1.6 6.3 2.4 9.5-.2-.1-.3-.1-.5-.1zm.6 0c-.3-3.3-.7-6.5-1.3-9.7-.7-3.5-1.5-7-2.5-10.5s-2.1-6.9-3.3-10.3c-1.2-3.1-2.4-6.2-3.8-9.3 1.2-.8 2.2-1.6 3.3-2.5 1.2-1 2.4-2.1 3.6-3.3 2.3-2.3 4.5-4.6 6.5-7.1-1.9 1.7-3.7 3.3-5.6 4.9-1.2-.9-2.4-1.6-3.7-2.3 0 0 0-.1-.1-.1l-1.1-.7c-.2-.1-.4-.3-.7-.4.1-.1.2-.1.3-.2 3-2 6-4.1 9-6.2 1.6-1.2 3.3-2.3 4.7-3.8 1-1.2 1.9-2.5 2.7-3.8 0 2.2-.1 4.4-.3 6.5-.2 1.3-.5 2.5-.9 3.8-.4 1.3-.8 2.5-1.2 3.8v.2c.8 8.7 1.8 17.4 2.8 26.1.2 2.2.5 4.4.8 6.5l.9 6.5 1.7 11.8c-4 0-7.9 0-11.8.1zm102.9-8.3c-.1-3.1-.3-6.1-.6-9.2-.5-6.1-1.4-12.3-2.8-18.3-.1-.3-.3-.5-.6-.6l-1.6-.4c-.1-.6-.2-1.1-.5-1.6-.3-.7-.8-1.4-1.5-1.9-.3-.3-.7-.4-1.1-.6l-1-.4-1.9-.8c-2.5-1-5.1-1.9-7.6-2.8-4.8-1.7-9.6-3.3-14.4-4.9l.2-.2c.4-.3.8-.5 1.2-.8.2-.1.3-.4.1-.6 0-.1-.1-.1-.1-.1-.3-.2-.6-.4-.9-.5-3.1-1.9-6.2-3.9-9.1-6-1.6-1.2-3.3-2.3-4.5-3.8-1.3-1.5-2.3-3.2-3.2-4.9 0-.1-.1-.1-.1-.1-.5-.6-2.4-1.1-2.4-1.1-.1 2.9-.1 7.4.5 9.7.4 1.7 1.8 3.6 2.4 4.5.3 1 .5 2 .8 2.9-1.2 8.6-2.3 17.2-3.4 25.9-.3 2.2-.6 4.3-.9 6.5l-1 6.5-1.8 13c-.1.6.3 1.1.9 1.2h.2c4.6 0 9.2 0 13.8-.1l13.8-.2 27-.6c.1-.3 0-.5.1-.6v-4c.1-2.1.1-3.6 0-5.1zm-53.4 8.1 1.7-11.8.9-6.5c.3-2.2.6-4.3.8-6.5 1-8.7 1.9-17.4 2.8-26.1v-.2c-.4-1.2-.8-2.5-1.2-3.8-.3-1.3-.7-2.5-.9-3.8-.2-2.1-.3-4.3-.3-6.5.8 1.4 1.7 2.6 2.7 3.8 1.3 1.6 3.1 2.7 4.7 3.8 3 2.1 6 4.1 9 6.2.1.1.2.1.3.2-.2.1-.4.3-.7.4l-1.1.7-.1.1c-1.3.7-2.5 1.4-3.7 2.3-1.9-1.6-3.8-3.2-5.6-4.9 2 2.5 4.2 4.9 6.5 7.1 1.1 1.1 2.3 2.2 3.6 3.3 1.1.9 2.1 1.7 3.3 2.5-1.4 3.1-2.6 6.1-3.8 9.3-1.2 3.4-2.4 6.8-3.3 10.3-1 3.4-1.8 7-2.5 10.5-.6 3.2-1.1 6.5-1.3 9.7-4 0-7.9 0-11.8-.1zm25.8.4-13.5-.2h-.5c.8-3.2 1.5-6.3 2.4-9.5.9-3.4 2-6.9 3.1-10.2 1.1-3.4 2.2-6.8 3.5-10.1 1.2-3.3 2.5-6.7 3.9-9.9.2-.4 0-.9-.4-1.1-1.3-.7-2.6-1.6-3.9-2.6-1.3-.9-2.5-1.9-3.7-3-.5-.4-1-.9-1.5-1.3 1.3-.4 2.6-1 3.9-1.5l15 5.7 7.5 2.9 1.9.8.9.4c.3.1.5.2.7.4.8.6 1.3 1.8 1.4 2.9 0 .3.2.5.4.6-1.4 2.6-2.7 5.2-3.8 8-1.2 3-2.1 6.1-2.9 9.2-.7 3.1-1.4 6.3-1.7 9.5-.4 3.1-.6 6.1-.6 9.2l-12.1-.2zm12 .3c.2-1.5.3-2.9.6-4.4.2-1.6.5-3.2.7-4.8.6-3.2 1.2-6.3 1.9-9.4.7-3.1 1.6-6.2 2.6-9.2l.8-2.3.9-2.2c.4-1.2 1-2.4 1.5-3.7h.1l1.6.4c.6 2.8 1.3 5.6 1.8 8.5.5 3 1 6 1.4 9.1.4 3 .7 6.1.9 9.1.1 1.5.3 3.1.4 4.6l.1 2.3.1 1.1v.6c0 .2 0 .4.1.5l-15.5-.2z" fill="#01606f" stroke-width="none" opacity="1"></path></g><g id="svga-group-head" transform="matrix(1,0,0,1,0,0)"><g id="svga-group-ears-left-move" transform="matrix(1,0,0,1,0,0)"><g id="svga-group-ears-left"><path id="SvgjsPath11994" d="M64.4 97.4S60.2 93 59 91.6c-1.3-1.4-2.9-4.4-4.7-3.9s-1.2 2.6-1.3 5.4c-.1 2.9.3 8.6 2.1 11.7s2.7 4.2 3.3 7.5 2.6 3.9 3.8 3 4-6.6 4.1-9.6c.1-2.9-1.1-7-1.9-8.3z" fill="#f3d4cf" stroke-width="none" opacity="1"></path><path id="SvgjsPath11995" d="M65.3 99.4c.2.7.4 1.4.6 2.2.4 1.5.6 3 .6 4.6 0 .8-.2 1.5-.3 2.2-.2.7-.4 1.3-.6 2-.5 1.3-1 2.4-1.6 3.5-.3.6-.6 1.1-1 1.6-.2.2-.4.5-.7.7s-.6.3-.9.3c-.6.1-1.3-.1-1.9-.6-.6-.5-1.1-1.3-1.3-2.1l-.2-.6-.1-.6c-.1-.4-.1-.7-.2-1.1-.1-.7-.3-1.4-.6-2-.5-1.3-1.2-2.5-1.9-3.8-.4-.6-.7-1.3-1-2.1-.3-.7-.4-1.5-.6-2.2-.3-1.5-.5-3-.7-4.5-.1-1.5-.2-3-.2-4.4 0-.7-.1-1.4-.1-2.2 0-.4 0-.8.1-1.2.1-.4.2-.8.4-1.1.2-.3.5-.5.8-.6s.6-.2.9-.1c.7.1 1.3.5 1.8 1 1 1 1.8 2.3 2.6 3.2 1.8 2.1 3.5 4.2 5.3 6.1.3.4.6 1.1.8 1.8zM58.8 92c-1-1-1.8-2.1-2.7-2.9-.4-.4-.9-.7-1.3-.7s-.9.1-1.1.4c-.3.3-.4.9-.4 1.6v2.2c0 .8-.1 1.4-.1 2.2 0 .7 0 1.4.1 2.2.1 1.5.3 2.9.7 4.4.4 1.4.9 2.8 1.7 3.9.7 1.2 1.6 2.3 2.2 3.8.3.7.6 1.5.8 2.2.1.4.2.8.3 1.1l.1.5.1.5c.2.6.5 1.1.9 1.4s.8.4 1.2.3c.2 0 .4-.1.6-.2.2-.1.3-.3.5-.5.3-.4.6-.9.9-1.4.6-1 1.1-2.1 1.6-3.3.5-1.2.9-2.3 1.1-3.6.2-1.3 0-2.8-.2-4.3-.1-.7-.3-1.5-.5-2.2s-.5-1.4-.8-2c-1.9-2.1-3.8-3.8-5.7-5.6z" fill="#e4b3ab" stroke-width="none" opacity="1"></path><path id="SvgjsPath11996" d="M53.4 92.2c.5-1.8 2-.9 2.9.4 1.7 2.5 3 6.2 3.4 9.4 0 .1-.1.2-.1.1-.1.1-.2.1-.2-.1-1.1-.4-1.5-.2-1.2.7 0 .3.1.6.3.8.2.5.5 1 .8 1.4.5.8 1.1 1.4 1.6 2.2.2.3 0 .5-.2.4-1.3-.9-3.6-4.1-3-6.2.2-.8.9-1 1.4-.6-1-3.4-3.7-11.3-5.4-8.3-.1.1-.3-.1-.3-.2z" fill="#d4958a" stroke-width="none" opacity="1"></path><path id="SvgjsPath11997" d="M56.1 92.6c-1 1.9-1.3 4.1-.8 6.7.3 1.4 2.8 8.9 4.6 7.9.2-.1.4.3.2.5-1.9 1.7-4-4.2-4.6-6.1-1.1-3.2-1.3-7 .5-9.1 0-.1.2 0 .1.1z" fill="#d4958a" stroke-width="none" opacity="1"></path></g></g><g id="svga-group-ears-right-move" transform="matrix(1,0,0,1,0,0)"><g id="svga-group-ears-right"><path id="SvgjsPath11998" d="M135.6 97.4s4.2-4.4 5.4-5.8c1.3-1.4 2.9-4.4 4.7-3.9s1.2 2.6 1.3 5.4c.1 2.9-.3 8.6-2.1 11.7s-2.7 4.2-3.3 7.5-2.6 3.9-3.8 3-4-6.6-4.1-9.6c-.1-2.9 1.1-7 1.9-8.3z" fill="#f3d4cf" stroke-width="none" opacity="1"></path><path id="SvgjsPath11999" d="M135.6 97.4c1.8-1.9 3.5-4 5.3-6.1.8-1 1.5-2.3 2.6-3.2.5-.5 1.1-.9 1.8-1 .3 0 .6 0 .9.1.3.1.6.3.8.6.2.3.4.7.4 1.1.1.4.1.8.1 1.2 0 .8-.1 1.5-.1 2.2 0 1.4-.1 3-.2 4.4-.1 1.5-.3 3-.7 4.5-.2.7-.4 1.5-.6 2.2-.3.7-.6 1.4-1 2.1-.7 1.3-1.4 2.5-1.9 3.8-.3.6-.4 1.3-.6 2-.1.3-.1.7-.2 1.1l-.1.6-.2.6c-.3.8-.7 1.6-1.3 2.1s-1.3.7-1.9.6c-.3 0-.6-.1-.9-.3-.3-.2-.5-.4-.7-.7-.4-.5-.7-1-1-1.6-.6-1.1-1.2-2.3-1.6-3.5-.2-.6-.4-1.3-.6-2-.2-.7-.3-1.4-.3-2.2 0-1.6.3-3.1.6-4.6.2-.7.4-1.5.6-2.2.1-.5.4-1.2.8-1.8zm0 .1c-.3.6-.6 1.3-.8 2s-.4 1.4-.5 2.2c-.2 1.4-.4 3-.2 4.3s.7 2.5 1.1 3.6c.5 1.1 1 2.3 1.6 3.3.3.5.6 1 .9 1.4.2.2.3.4.5.5s.4.2.6.2c.4.1.8 0 1.2-.3s.7-.8.9-1.4l.1-.5.1-.5c.1-.4.2-.8.3-1.1.2-.8.4-1.5.8-2.2.6-1.4 1.5-2.6 2.2-3.8.8-1.1 1.3-2.5 1.7-3.9s.6-2.9.7-4.4c0-.7.1-1.5.1-2.2s-.1-1.4-.1-2.2v-2.2c0-.7-.1-1.3-.4-1.6-.3-.3-.7-.4-1.1-.4-.4 0-.9.3-1.3.7-.9.8-1.7 1.9-2.7 2.9-2 1.9-3.9 3.6-5.7 5.6z" fill="#e4b3ab" stroke-width="none" opacity="1"></path><path id="SvgjsPath12000" d="M146.6 92.2c-.5-1.8-2-.9-2.9.4-1.7 2.5-3 6.2-3.4 9.4 0 .1.1.2.1.1.1.1.2.1.2-.1 1.1-.4 1.5-.2 1.2.7 0 .3-.1.6-.3.8-.2.5-.5 1-.8 1.4-.5.8-1.1 1.4-1.6 2.2-.2.3 0 .5.2.4 1.3-.9 3.6-4.1 3-6.2-.2-.8-.9-1-1.4-.6 1-3.4 3.7-11.3 5.4-8.3.1.1.3-.1.3-.2z" fill="#d4958a" stroke-width="none" opacity="1"></path><path id="SvgjsPath12001" d="M143.9 92.6c1 1.9 1.3 4.1.8 6.7-.3 1.4-2.8 8.9-4.6 7.9-.2-.1-.4.3-.2.5 1.9 1.7 4-4.2 4.6-6.1 1.1-3.2 1.3-7-.5-9.1 0-.1-.2 0-.1.1z" fill="#d4958a" stroke-width="none" opacity="1"></path></g></g><g id="svga-group-faceshape-wrap"><g id="svga-group-faceshape-single"><path id="SvgjsPath12032" d="M141 88.4c0 30.3-18.9 65.2-41 65.2s-41-34.9-41-65.2 18.9-47 41-47 41 16.6 41 47z" fill="#f3d4cf" stroke-width="none" opacity="1"></path><path id="SvgjsPath12033" d="M100 41.3c-22.1 0-41.1 16.7-41.1 47s19 65.5 41.1 65.5 41.1-35.2 41.1-65.5-19-47-41.1-47zm28.2 13.6.8.8c.3.3.5.6.8.9.3.3.5.6.8.9l.7.9c.2.3.5.6.7.9l.7 1 .3.5.3.5c.4.7.9 1.3 1.2 2l.6 1c.2.3.4.7.5 1l.5 1.1.5 1.1c.2.4.3.7.5 1.1l.4 1.1c2.3 5.9 3.2 12.4 3.3 18.7 0 6.4-.9 12.8-2.6 18.9-.8 3.1-1.9 6.1-3.1 9-1.2 2.9-2.5 5.8-4 8.6s-3.1 5.5-4.8 8.1c-.9 1.3-1.8 2.6-2.7 3.8-.9 1.2-1.9 2.4-3 3.6-2 2.3-4.3 4.4-6.7 6.3-2.4 1.8-5 3.3-7.8 4.3-1.4.5-2.8.9-4.3 1-1.5.2-2.9.2-4.4.1-3-.2-5.9-1.2-8.6-2.6-2.7-1.4-5.3-3.3-7.6-5.4-2.3-2.1-4.4-4.5-6.3-7.1s-3.6-5.3-5-8.1c-1.5-2.8-2.8-5.7-3.9-8.7-.6-1.5-1.1-3-1.6-4.5s-.9-3-1.3-4.6c-.8-3.1-1.4-6.2-1.8-9.3-.4-3.1-.7-6.3-.8-9.4 0-1.6 0-3.1.1-4.7 0-.8.1-1.6.1-2.3l.2-2.3c.3-3.1.9-6.2 1.7-9.1.8-3 1.8-5.9 3.2-8.6.2-.4.3-.7.5-1l.5-1c.4-.7.8-1.3 1.2-2 .4-.6.8-1.3 1.3-1.9l.7-.9.3-.5.4-.4c1.9-2.4 4.1-4.5 6.5-6.3s5-3.3 7.8-4.5 5.7-2 8.6-2.5c.7-.2 1.5-.2 2.2-.3.4-.1.8-.1 1.1-.1l1.1-.1c.8 0 1.5-.1 2.3-.1H102.6l1.1.1c.4 0 .8.1 1.1.1.4 0 .8.1 1.1.1l1.1.2.6.1.6.1 1.1.2c.4.1.7.2 1.1.3s.7.2 1.1.3c1.4.4 2.9.9 4.3 1.5s2.8 1.2 4.1 2c2.7 1.5 5.2 3.3 7.4 5.4l.4.4.5.3z" fill="#c5796d" stroke-width="none" opacity="1"></path></g></g><g id="svga-group-mouth-single-move" transform="matrix(1,0,0,1,0,0)"><g id="svga-group-mouth-single"><path id="SvgjsPath11982" d="M90 128.1s2 2.6 4 3.8 9.4 1.3 13.4-.2 7.5-6.6 8.1-7.8c0 0-2.9 1.9-7.1 1.5-4.3-.3-13.7.8-15.6 1.6s-2.8 1.1-2.8 1.1z" fill="#b10c2a" stroke-width="none" opacity="1" transform="translate(0 3)"></path><path id="SvgjsPath11983" d="M117.2 121.6c-.5-.4-1-.6-1.6-.4-.4.1-.4.7-.1.8.1.1.2.1.3.2l-.6.6c-.7.8-2.3 2.2-5.3.8-3-1.4-5.1-1.8-7.1-.5s-2.7.9-4.6.2c-1.9-.6-4.3.4-5.5 1.7-1.2 1.3-2.2 2.6-4.1 2s-.8.5-.8.5c.2.1 1.5 1.1 2.5 1.4 1.1.2 2.1-.5 4.5-1.2s8.1-1.2 11.9-1.1c5.4.2 6.8-.6 8.3-1.8.7-.6 1.2-1.1 1.5-1.6.1.2.2.4.4.5.3.2.8.1.9-.3.2-.8-.2-1.4-.6-1.8z" fill="#a90321" stroke-width="none" opacity="1" transform="translate(0 3)"></path><path id="SvgjsPath11984" d="M95.7 129.5c3.4 0 7.4.1 10.8-.9.5-.1.5-.8 0-1-3.4-1-7.7-.1-10.9 1.2-.3.2-.3.7.1.7z" fill="#b91633" stroke-width="none" opacity="1" transform="translate(0 3)"></path></g></g><g id="svga-group-eyes-left-move" transform="matrix(1,0,0,1,0,0)"><g id="svga-group-eyes-left"><g id="svga-group-eyesback-left"><path id="SvgjsPath12105" d="M92 99.3s-1.6-1.9-4.3-3.5c-2.7-1.6-6.5-2.8-10.1-2.4-3.5.4-6.5 1.3-6.4 1.4s1.1 2.3 3.4 3.6c2.3 1.3 4.9 2.6 8.2 2.7 3.3 0 6-.4 7.5-1s1.7-.8 1.7-.8z" fill="#ffffff" stroke-width="none" opacity="1"></path></g><g id="svga-group-eyesiriswrapper-left" transform="matrix(1,0,0,1,0,0)"><g id="svga-group-eyesiriscontrol-left" transform="matrix(1,0,0,1,0,0)"><g id="svga-group-eyesiris-left"><path id="SvgjsPath12067" d="M82 91.5c2.7 0 4.9 2.2 4.9 4.9s-2.2 4.9-4.9 4.9-4.9-2.2-4.9-4.9 2.2-4.9 4.9-4.9z" fill="#657475" stroke-width="none" opacity="1"></path><path id="SvgjsPath12068" d="M82 93.8c1.4 0 2.6 1.2 2.6 2.6S83.4 99 82 99s-2.6-1.2-2.6-2.6 1.2-2.6 2.6-2.6z" fill="#000000" stroke-width="none" opacity="1"></path><path id="SvgjsPath12069" d="m81.3 94.3-.5-.5c-.2-.2-.4-.3-.7-.3s-.5.1-.7.3c-.2.2-.3.4-.3.7s.1.5.3.7l.5.5c.2.2.4.3.7.3.2 0 .5-.1.7-.3.4-.5.4-1 0-1.4zm2.5 4.4c.8 0 .8-1.3 0-1.3s-.9 1.3 0 1.3z" fill="#ffffff" stroke-width="none" opacity="1"></path></g></g></g><g id="svga-group-eyesfront-left"><path id="SvgjsPath12113" d="M70.73 98.03c0 6.9 4.93 12.5 11.02 12.5s11.02-5.6 11.02-12.5-4.93-12.5-11.02-12.5-11.02 5.59-11.02 12.5zm.42-3.19c-.07-.11 2.9-.93 6.44-1.36 3.54-.43 7.34.79 10.06 2.36 2.72 1.58 4.33 3.48 4.33 3.48s-.35.17-1.78.78c-1.43.61-4.22 1.07-7.48 1.04-3.26-.04-5.83-1.36-8.16-2.68-2.34-1.33-3.34-3.52-3.41-3.62z" fill="#f3d4cf" stroke-width="none" opacity="1"></path><path id="SvgjsPath12114" d="M92.14 98.9c-1.64-4.26-4.72-7.79-9.36-8.78-4.77-1.01-8.68 1.11-12.08 4.21-.06.06-.18-.02-.12-.1 5.62-8.37 19.63-4.78 21.65 4.63.01.07-.07.09-.09.04z" fill="#e4b3ab" stroke-width="none" opacity="1"></path><path id="SvgjsPath12115" d="M63.55 95.41c2.13.29 4.01-.12 5.87-.69-1.83-.08-3.62-.65-5.17-1.79-.16-.11-.07-.43.15-.34 2.45 1 4.91 1.54 7.45 1.35.82-.27 1.66-.52 2.53-.72 2.12-.49 4.34-.6 6.48-.26 4.19.66 8.97 2.88 11.37 6.52.04.07-.05.12-.1.08-4.31-3.46-8.42-5.76-14.13-5.63-2.16.05-4.27.7-6.39 1.29 4.59 6 13.2 7.22 19.92 4.28.03-.02.06.03.03.05-6.58 3.27-16.06 2.28-20.4-4.21-2.56.7-5.11 1.26-7.72.5-.28-.09-.16-.47.11-.43z" fill="#000000" stroke-width="none" opacity="1"></path></g></g></g><g id="svga-group-eyes-right-move" transform="matrix(1,0,0,1,0,0)"><g id="svga-group-eyes-right"><g id="svga-group-eyesback-right"><path id="SvgjsPath12106" d="M108 99.3s1.6-1.9 4.3-3.5c2.7-1.6 6.5-2.8 10.1-2.4 3.5.4 6.5 1.3 6.4 1.4s-1.1 2.3-3.4 3.6c-2.3 1.3-4.9 2.6-8.2 2.7-3.3 0-6-.4-7.5-1s-1.7-.8-1.7-.8z" fill="#ffffff" stroke-width="none" opacity="1"></path></g><g id="svga-group-eyesiriswrapper-right" transform="matrix(1,0,0,1,0,0)"><g id="svga-group-eyesiriscontrol-right" transform="matrix(1,0,0,1,0,0)"><g id="svga-group-eyesiris-right"><path id="SvgjsPath12070" d="M118 91.5c2.7 0 4.9 2.2 4.9 4.9s-2.2 4.9-4.9 4.9-4.9-2.2-4.9-4.9 2.2-4.9 4.9-4.9z" fill="#657475" stroke-width="none" opacity="1"></path><path id="SvgjsPath12071" d="M118 93.8c1.4 0 2.6 1.2 2.6 2.6S119.4 99 118 99s-2.6-1.2-2.6-2.6 1.2-2.6 2.6-2.6z" fill="#000000" stroke-width="none" opacity="1"></path><path id="SvgjsPath12072" d="m117.4 94.3-.5-.5c-.2-.2-.4-.3-.7-.3s-.5.1-.7.3c-.2.2-.3.4-.3.7s.1.5.3.7l.5.5c.2.2.4.3.7.3.2 0 .5-.1.7-.3.3-.5.4-1 0-1.4zm2.4 4.4c.8 0 .8-1.3 0-1.3s-.8 1.3 0 1.3z" fill="#ffffff" stroke-width="none" opacity="1"></path></g></g></g><g id="svga-group-eyesfront-right"><path id="SvgjsPath12116" d="M118.26 85.53c-6.08 0-11.02 5.6-11.02 12.5s4.93 12.5 11.02 12.5 11.02-5.6 11.02-12.5-4.94-12.5-11.02-12.5zm7.19 12.92c-2.33 1.32-4.9 2.65-8.16 2.68-3.26.04-6.05-.43-7.48-1.04-1.43-.61-1.78-.78-1.78-.78s1.6-1.9 4.33-3.48c2.72-1.58 6.52-2.79 10.06-2.36 3.54.43 6.52 1.25 6.44 1.36-.08.11-1.08 2.3-3.41 3.62z" fill="#f3d4cf" stroke-width="none" opacity="1"></path><path id="SvgjsPath12119" d="M107.86 98.9c1.64-4.26 4.72-7.79 9.36-8.78 4.77-1.01 8.68 1.11 12.08 4.21.06.06.18-.02.12-.1-5.62-8.37-19.63-4.78-21.65 4.63-.01.07.07.09.09.04z" fill="#e4b3ab" stroke-width="none" opacity="1"></path><path id="SvgjsPath12120" d="M136.45 95.41c-2.13.29-4.01-.12-5.87-.69 1.83-.08 3.62-.65 5.17-1.79.16-.11.07-.43-.15-.34-2.45 1-4.91 1.54-7.45 1.35-.82-.27-1.66-.52-2.53-.72-2.12-.49-4.34-.6-6.48-.26-4.19.66-8.97 2.88-11.37 6.52-.04.07.05.12.1.08 4.31-3.46 8.42-5.76 14.13-5.63 2.16.05 4.27.7 6.39 1.29-4.59 6-13.2 7.22-19.92 4.28-.03-.02-.06.03-.03.05 6.58 3.27 16.06 2.28 20.4-4.21 2.56.7 5.11 1.26 7.72.5.28-.09.16-.47-.11-.43z" fill="#000000" stroke-width="none" opacity="1"></path></g></g></g><g id="svga-group-facehighlight-single"></g><g id="svga-group-eyebrows-left-move" transform="matrix(1,0,0,1,0,0)"><g id="svga-group-eyebrows-left-rotate" transform="matrix(1,0,0,1,0,0)"><g id="svga-group-eyebrows-left"><path id="SvgjsPath12176" d="M72.9 84.2c.1-.2.4-.3.6-.4.2-.1.4-.2.6-.2.4-.2.8-.4 1.2-.5.5-.1 1.2-.5 1.7-.2 1.6-.6 3.7-.2 5.1.6 1.9.2 3.9.8 5.3 1.8.1.1.2.2.2.3.3.1.5.2.8.3 1 .4 2.1.7 3.1 1.2.1 0 .2.1.3.1.3.1.4.7.2.8-.1.1-.1.2-.2.3-.8.6-1.8.2-2.6-.1-.7-.3-1.5-.6-2-1.2-.8-.3-1.4-.7-2.1-1.1-.1 0-.2-.1-.3-.1-1.2-.2-2.5-.7-3.7-1.3-.7-.1-1.3-.3-2-.3-.9-.1-1.8.2-2.8-.1h-.1c-.2.1-.4.1-.6.2-.8.2-1.5.4-2.3.4-.1 0-.2-.1-.2-.2H73s-.2-.1-.1-.3z" fill="#a46c47" stroke-width="none" opacity="1"></path><path id="SvgjsPath12177" d="M77.4 82.3c3.1-.2 6.2 1.5 9 2.6 1.7.7 5.2.9 5.9 3 .1.3-.3.4-.5.2-.9-1.2-2.4-1.4-3.8-1.8-1.2-.4-2.3-.8-3.5-1.3-2.4-1-4.8-1.6-7.3-2.2-.1-.1 0-.4.2-.5z" fill="#b38160" stroke-width="none" opacity="1"></path><path id="SvgjsPath12178" d="M93.3 87.9c.3-1.4-1.8-1.9-2.8-2.3-2.4-1-4.9-2.1-7.4-2.8-1.5-.4-3.1-.7-4.6-.7-1.2 0-2.3.1-3.5.5-2 .6-3.9 1.8-5.6 3.1-.9.5-1.8 1.2-2.5 1.9-.1.1 0 .3.2.2 0 0 .1 0 .1-.1 0 .1.1.1.2.1 1.5-.7 2.8-1.6 4.3-2.2 1.5-.6 3.1-1 4.7-1.1h.7c1.9 0 3.7.4 5.4 1.2 2.4 1.1 4.6 2.6 7 3.5.4.2.9.2 1.4.2 1.1 0 2.2-.4 2.4-1.5zM78.5 83c1.6 0 3.2.4 4.8.9 2 .7 4 1.6 6 2.4.4.2 2.4.7 2.6 1.2.2.6-.2.8-.8.9-.3 0-.6-.1-.8-.1-.6-.2-1.2-.6-1.7-.9-3.1-1.6-6.3-3.5-9.8-3.7h-1c-1.1 0-2.3.1-3.5.3.5-.2 1-.4 1.6-.6.8-.3 1.7-.4 2.6-.4z" fill="#955932" stroke-width="none" opacity="1"></path></g></g></g><g id="svga-group-eyebrows-right-move" transform="matrix(1,0,0,1,0,0)"><g id="svga-group-eyebrows-right-rotate" transform="matrix(1,0,0,1,0,0)"><g id="svga-group-eyebrows-right"><path id="SvgjsPath12179" d="M127.1 84.2c-.1-.2-.4-.3-.6-.4-.2-.1-.4-.2-.6-.2-.4-.2-.8-.4-1.2-.5-.5-.1-1.2-.5-1.7-.2-1.6-.6-3.7-.2-5.1.6-1.9.2-3.9.8-5.3 1.8-.1.1-.2.2-.2.3-.3.1-.5.2-.8.3-1 .4-2.1.7-3.1 1.2-.1 0-.2.1-.3.1-.3.1-.4.7-.2.8.1.1.1.2.2.3.8.6 1.8.2 2.6-.1.7-.3 1.5-.6 2-1.2.8-.3 1.4-.7 2.1-1.1.1 0 .2-.1.3-.1 1.2-.2 2.5-.7 3.7-1.3.7-.1 1.3-.3 2-.3.9-.1 1.8.2 2.8-.1h.1c.2.1.4.1.6.2.8.2 1.5.4 2.3.4.1 0 .2-.1.2-.2h.1s.2-.1.1-.3z" fill="#a46c47" stroke-width="none" opacity="1"></path><path id="SvgjsPath12180" d="M122.6 82.3c-3.1-.2-6.2 1.5-9 2.6-1.7.7-5.2.9-5.9 3-.1.3.3.4.5.2.9-1.2 2.4-1.4 3.8-1.8 1.2-.4 2.3-.8 3.5-1.3 2.4-1 4.8-1.6 7.3-2.2.1-.1 0-.4-.2-.5z" fill="#b38160" stroke-width="none" opacity="1"></path><path id="SvgjsPath12181" d="M109 89.3c.5 0 1-.1 1.4-.2 2.4-.9 4.7-2.4 7-3.5 1.8-.8 3.6-1.2 5.4-1.2h.7c1.6.1 3.2.5 4.6 1.1 1.5.6 2.9 1.6 4.3 2.2.1 0 .2 0 .2-.1 0 0 .1 0 .1.1.2.1.3-.1.2-.2-.7-.7-1.6-1.4-2.5-1.9-1.7-1.3-3.6-2.4-5.6-3.1-1.1-.4-2.3-.5-3.5-.5-1.6 0-3.1.3-4.6.7-2.5.7-5 1.8-7.4 2.8-.9.4-3.1.9-2.8 2.3.4 1.2 1.5 1.6 2.5 1.5zm15.2-5.9c.5.2 1.1.3 1.6.6-1.2-.2-2.3-.3-3.5-.3h-1c-3.5.2-6.8 2.2-9.8 3.7-.6.3-1.1.7-1.7.9-.2.1-.5.1-.8.1-.5 0-1-.2-.8-.9.2-.5 2.2-1 2.6-1.2 2-.8 4-1.7 6-2.4 1.6-.5 3.2-.9 4.8-.9.8 0 1.7.1 2.6.4z" fill="#955932" stroke-width="none" opacity="1"></path></g></g></g><g id="svga-group-nose-single-move" transform="matrix(1,0,0,1,0,0)"><g id="svga-group-nose-single"><path id="SvgjsPath12151" d="M103.3 114.98c.02.07.04.13.08.19.3.5.8.49 1.28.67.37.14.67.41 1.05.55.58.21 1.04-.42.93-.93-.2-.96-1.64-1.8-2.63-1.51.14-.28.26-.58.34-.92.06-.27-.33-.46-.46-.19-1.82 3.66-6.13 4.01-8.33.41-.04-.07-.17-.03-.14.06.1.31.23.59.38.85-.95-.05-2.34.8-2.03 1.78-.04.4.4.62.74.54.31-.01.59-.16.86-.32.24-.14.62-.17.94-.33.25-.12.37-.32.41-.54.21.18.44.34.68.47-1.41.04-2.67 1.32-4.11.48-2.74-1.62.01-4.96 1.39-6.41.11-.12-.06-.28-.18-.18-1.68 1.47-3.88 3.86-2.42 6.23 1.46 2.38 3.82.47 5.78.12 1.81.77 4.07.42 5.44-1.02z" fill="#c5796d" stroke-width="none" opacity="1" transform="translate(0 2)"></path><path id="SvgjsPath12152" d="M104.73 109.22c-.12-.06-.27.1-.16.2 1.4 1.24 3.42 2.4 3.52 4.52.05 1.18-.56 2.14-1.68 2.45-1.16.32-2.29-.23-3.39-.56-.16-.05-.23.17-.11.26 1.83 1.31 4.86 1.82 5.69-.91.81-2.66-1.73-4.92-3.87-5.96z" fill="#c5796d" stroke-width="none" opacity="1" transform="translate(0 2)"></path><path id="SvgjsPath12153" d="M98.05 106.55c2.18-.59 4.11-.09 6.02 1 .09.05.21-.08.12-.16-1.7-1.45-4.12-1.68-6.19-1.02-.11.04-.06.21.05.18z" fill="#c5796d" stroke-width="none" opacity="1" transform="translate(0 2)"></path><path id="SvgjsPath12154" d="M97.02 105.73c1.08-2.37 1.09-5.39.14-7.79-.04-.1-.18-.06-.16.04.45 2.7.3 4.96-.27 7.63-.04.16.21.29.29.12z" fill="#c5796d" stroke-width="none" opacity="1" transform="translate(0 2)"></path><path id="SvgjsPath12155" d="M101.8 109.08c-.45-.49-1.27-.56-1.83-.24-.26.15-.44.37-.57.62a2.8 2.8 0 0 0-.16-.2c-.84-.99-2.54-.17-2.51 1.04.03 1.75 1.98 3.22 3.67 2.79 1.72-.42 2.65-2.62 1.4-4.01z" fill="#fbe5e2" stroke-width="none" opacity="1" transform="translate(0 2)"></path></g></g><g id="svga-group-hair-front"><path id="SvgjsPath12274" d="M143.1 79.3c-.9 7.7-2.8 15-4.8 18.6 0 0-.3-14.3-3.7-21.1S121.2 62.2 120 56.5c0 0 1.5 3.3 3.8 4.7s10.3 7.6 12.2 9.7 5 7.3 6.3 8c.1.1.5.2.8.4zm-76.2 56.4c0 .6-.2 2.2-.5 4.5-.7-6.6-2.1-13.9-2.1-13.9s-30.2 44.5-26.2 59.2c4 14.7 12.1 24.9 12.9 25.7.8.8 4 1.9 5.4 4.5.5 1 10.5-8.8 5.6-20.6-4.8-11.8-5.9-19.8-1.9-26 .7-1.1 1.3-2.3 1.9-3.5-.8 4.3-1.5 7.7-1.7 8.7-.9 3.5-.9 8.5 1.5 14s6.1 5.8 6.1 5.8c-1.7-2.7-1.8-7.3-.2-12.1s4.2-9.5 5.6-14.5c1.5-5.2 2.2-11.4-2.7-21.7-2.7-6.1-3.7-10.1-3.7-10.1z" fill="#d13a06" stroke-width="none" opacity="1"></path><path id="SvgjsPath12275" d="M120 56.5s-18.2 6.8-32.8 1.7-24 15.1-22.8 27.1 9.4 27.7 4.6 47.1c-4.8 19.4-18.8 34.2-22.8 42.8s-4 17.4 0 23.7 6 10.8 7.1 17.4c0 0-1.5-3.6-7.4-8-9.3-6.9-13.1-15.1-12.5-27.9s6.2-22.8 11.1-33.1c4.8-10.3 7.3-23.3 3.9-31.9-3.4-8.6-7.3-20.5-5.9-41.7 1.4-21.1 13.1-32.4 27.7-41s35.7-7 49.1 1.3 11.4 15.7 11.4 15.7 4-2 10 7.1 2 33.4-2.3 41.1c0 0-.3-14.3-3.7-21.1S121.2 62.2 120 56.5z" fill="#d94411" stroke-width="none" opacity="1"></path><path id="SvgjsPath12276" d="M127.6 50.2c-2.3 1.5-4.7 1.5-6.1.8-4.1-1.8-7.4-8-10.8-11.7-5.7-6.2-7.2-9.4-20.3-10.1-9.3-.5-16.7 1.9-21 3.8-14.2 8.5-25.5 19.8-26.9 40.6-1.4 21.1 2.4 33.1 5.9 41.7s.9 21.6-3.9 31.9c-4.8 10.3-10.5 20.3-11.1 33.1s3.3 21 12.5 27.9c5.9 4.4 7.4 8 7.4 8-1.6-4.5-4-6.3-8.7-10.6-4.8-4.3-9.4-16.4-8.4-25.6s9.7-25 13.8-31.4c4.1-6.4 7.4-17.4 8.8-23.3 1.4-5.9.2-10.8-3.9-20.9s-6.3-36.5-5.6-41c1.1-8.3 3.1-14 9.4-20.6 9.4-9.8 21.6-11.3 28.9-11.4 11.8-.1 20 7.7 21.5 9.9s10.5 11.9 12.8 12.3c2.3.4 8-3.4 8-3.4l.7-.6s.3-1 0-2.6c-.5.9-1.5 2.2-3 3.2zM102.2 60c.3 0 .7 0 1-.1.2 0 .5 0 .8-.1.4 0 .9-.1 1.3-.1.2 0 .5-.1.8-.1.3 0 .7-.1 1-.1.3 0 .6-.1.9-.1.3 0 .6-.1.9-.1.2 0 .4-.1.6-.1.4-.1.8-.2 1.2-.2.2 0 .4-.1.6-.1.4-.1.8-.2 1.1-.2.2 0 .3-.1.4-.1.3-.1.6-.2.9-.2.1 0 .2 0 .3-.1.4-.1.8-.2 1.1-.3.1 0 .2 0 .3-.1.4-.1.7-.2 1.1-.3 2.2-.6 3.5-1.1 3.5-1.1s-5 .6-10.9-5.5c-2.3-3.7-6.1-10.5-12-12.8-6.8-2.7-29.5-3.9-37.2 12.5s-2.7 30.5.6 37.4c3.3 6.9 8.5 20.1 8.3 28.7-.2 8.7-2.3 21-4.6 26.4-2.3 5.4-17.6 24.4-20.8 33.3-3.3 9.3-4.4 15.6 3.5 28.3 3 4.9 5 6.3 5.8 8.1-1.2-5-3.1-9-6.5-14.2-4-6.3-4-15.1 0-23.7s18-23.4 22.8-42.8-3.4-35.1-4.6-47.1S72.7 52.9 87.2 58c1.9.7 3.9 1.1 5.8 1.4h.1c.2 0 .4.1.7.1.4 0 .8.1 1.2.1.3 0 .6 0 .8.1.4 0 .8.1 1.3.1h4.1c.3.3.7.3 1 .2z" fill="#d13a06" stroke-width="none" opacity="1"></path><path id="SvgjsPath12277" d="M63.3 148.6s-2.6 6.6-9.3 14.7c-8.9 10.7-10.7 17.4-7.4 25.8 3.3 8.4 7.8 12.8 9.3 16.5s1.1 7.6 1.1 7.6 1.9-4.1 1.1-7.2c-.7-3.1-7.4-13.9-8.4-20s.1-12.9 4.2-18.7c3.5-4.9 7.6-11.6 9.4-18.7zm1.9 1.5s-2.5 11.6-6 17.4c-3.5 5.8-4.6 13-2 19.1 2.6 6.1 7.6 14.1 7.2 19.4 0 0 3.4-6.4.2-13s-4.3-16.4-1.7-23.1c2.6-6.6 2.9-15.2 2.3-19.8z" fill="#d94411" stroke-width="none" opacity="1"></path><path id="SvgjsPath12278" d="M93.1 59.7c.3 0 .5.1.7.1.4 0 .8.1 1.2.1.3 0 .6 0 .8.1.4 0 .8.1 1.3.1h1.5c-2.4-1-5.2-2.6-7.6-5.4-4.8-5.9-8.5-8.6-16.2-7.8S59 58.1 59.5 69c.5 10.8 4 17.7 6.2 23.6-.6-2.6-1.1-5-1.3-7.3-1.1-12 8.3-32.2 22.8-27.1 2 .7 3.9 1.1 5.9 1.5z" fill="#ca3300" stroke-width="none" opacity="1"></path></g><g id="svga-group-glasses-single-move" transform="matrix(1,0,0,1,0,0)"><g id="svga-group-glasses-single"><path id="SvgjsPath12215" d="M65.9 91.4c-1 .9-.6 5.1.1 8.8s1.3 6.1 3.7 7.1 8.8 1.9 15.5 1.2c6.7-.7 7.1-2.5 7.9-3.8.9-1.3 3.4-8.5 3.5-10.3S93.8 92 92 91.7s-11.3-1.1-16.2-1.4c-4.8-.4-8.6-.1-9.9 1.1z" fill="url(#SvgjsLinearGradient12216)" opacity="1"></path><path id="SvgjsPath12220" d="M134.1 91.4c1 .9.6 5.1-.1 8.8s-1.3 6.1-3.6 7.1c-2.4 1-8.8 1.9-15.5 1.2-6.7-.7-7.1-2.5-7.9-3.8-.9-1.3-3.4-8.5-3.5-10.3s2.9-2.5 4.7-2.8 11.3-1.1 16.2-1.4c4.6-.3 8.4 0 9.7 1.2z" fill="url(#SvgjsLinearGradient12221)" opacity="1"></path><path id="SvgjsPath12225" d="M136.6 90.5c-.6-.5-3.6-.7-7.3-.9-3.6-.2-14.3.1-20.6 1.1-3.6.6-6.6 1.3-7.9 1.3h-1.4c-1.4 0-4.3-.7-7.9-1.3-6.3-1.1-17.1-1.3-20.6-1.1-3.7.2-6.7.3-7.3.9-.7.5 0 3.8.3 4.5s.6.6.9 1 .8 5.7 1.6 8.3c.8 2.7 2 4.3 9.2 4.9 7.2.6 13.6-.3 15.9-1.4 2.4-1.1 4.1-5.8 4.6-7.3.4-1.5 1-3.1 1.4-3.9.4-.8 2-1.3 2-1.3h1.4s1.6.6 2 1.3c.4.8.9 2.4 1.4 3.9.4 1.5 2.2 6.2 4.6 7.3 2.4 1.1 8.7 2 15.9 1.4s8.4-2.3 9.2-4.9 1.3-7.9 1.6-8.3c.3-.4.6-.3.9-1 .1-.7.7-4 .1-4.5zm-41.1 6c-.9 4.1-2.9 8.7-4.3 9.8-2.1 1.7-10.8 2.3-15.7 1.7-4.9-.6-7.2-1.3-8.2-4.6s-1.4-8.6-1.2-10.1 1.7-2.4 5.5-2.4 7.4 0 12.2.3 8.4 1 10.2 1.9c1.8.8 1.8 2 1.5 3.4zm37.2 6.9c-1 3.4-3.3 4.1-8.2 4.6-4.9.6-13.6 0-15.7-1.7-1.4-1.1-3.4-5.7-4.3-9.8-.3-1.4-.3-2.6 1.5-3.4 1.8-.8 5.4-1.6 10.2-1.9 4.8-.3 8.4-.3 12.2-.3 3.8 0 5.2.9 5.5 2.4.2 1.6-.2 6.8-1.2 10.1z" fill="#26120b" stroke-width="none" opacity="1"></path><path id="SvgjsPath12226" d="M136.6 90.5c-.6-.3-1.3-.4-2-.5-.7-.1-1.4-.1-2-.2-1.4-.1-2.7-.2-4.1-.2-2.7-.1-5.5 0-8.2.2-2.7.1-5.4.3-8.2.6-2.7.3-5.4.8-8.1 1.4-1.3.2-2.7.6-4.1.5-1.4.1-2.8-.2-4.1-.5-2.7-.5-5.3-1.1-8.1-1.4-5.4-.6-10.9-.8-16.3-.8-1.4 0-2.7.1-4.1.2-.7 0-1.4.1-2 .2-.7.1-1.4.1-1.9.4-.2.2-.2.6-.3.9v1c.1.7.2 1.3.3 2 .1.3.2.7.3.9.2.2.6.3.7.7.2.7.3 1.3.4 2 .2 1.3.4 2.7.7 4 .3 1.3.6 2.7 1.2 3.8.7 1.2 1.9 1.9 3.2 2.3 1.3.4 2.6.6 4 .8 2.7.3 5.4.3 8.2.2 2.7-.1 5.4-.4 8-1.2.7-.2 1.2-.4 1.7-.9.5-.4.9-.9 1.3-1.5.8-1.1 1.3-2.3 1.8-3.6.5-1.2.8-2.6 1.3-3.9.1-.3.2-.7.4-1 .1-.3.2-.7.5-1 .6-.5 1.2-.8 1.9-1.1h1.4c.6.2 1.1.5 1.7.9.2.2.5.5.6.8.1.3.2.6.3.8.4 1.1.8 2.3 1.1 3.4.4 1.1.8 2.2 1.4 3.2.6 1 1.2 2 2.1 2.8.8.7 2.1 1 3.2 1.3 1.2.2 2.3.4 3.5.6 2.4.3 4.7.4 7.1.3 2.4-.1 4.8-.2 7.1-.7 1.1-.3 2.3-.7 3.2-1.4.9-.7 1.4-1.9 1.8-3 .6-2.3.9-4.7 1.3-7 .1-.3.1-.6.2-.9.1-.3.4-.5.6-.7.5-.4.5-1 .7-1.6l.3-1.8c.2-.2.3-.9 0-1.3zm0-.1c.2.2.2.6.3.8v.9c0 .6-.1 1.2-.2 1.8-.1.3-.1.6-.2.9-.1.3-.2.6-.5.8-.2.2-.5.3-.6.6-.1.3-.1.6-.2.9-.4 2.3-.6 4.7-1.3 7.1-.3 1.1-.8 2.3-1.8 3.1-1 .8-2.1 1.2-3.3 1.5-2.3.6-4.8.7-7.1.8-2.4.1-4.8 0-7.2-.2-1.2-.1-2.4-.3-3.6-.6-.6-.1-1.2-.3-1.8-.5-.6-.2-1.2-.5-1.6-.9-.9-.8-1.6-1.9-2.2-2.9-.6-1.1-1-2.2-1.4-3.3-.4-1.2-.7-2.3-1.1-3.4-.1-.3-.2-.6-.3-.8-.1-.3-.2-.4-.5-.6-.4-.3-1-.6-1.5-.8h.1-1.4.1c-.6.2-1.2.5-1.7.9-.2.2-.3.5-.4.8l-.3.9c-.5 1.3-.8 2.6-1.3 3.9-.5 1.3-1.1 2.5-1.9 3.7-.4.6-.8 1.1-1.4 1.6-.5.5-1.2.8-1.9 1-2.7.8-5.4 1-8.1 1.2-2.7.1-5.5 0-8.2-.3-1.4-.2-2.7-.4-4-.8-1.3-.4-2.6-1.2-3.3-2.4-.7-1.2-1-2.6-1.2-3.9-.3-1.3-.4-2.7-.7-4.1-.1-.7-.2-1.4-.4-2-.1-.3-.5-.4-.7-.7-.2-.3-.3-.7-.4-1-.2-.7-.3-1.3-.3-2 0-.3-.1-.7 0-1 0-.3 0-.7.3-1 .6-.4 1.3-.4 2-.5.7-.1 1.4-.1 2-.2 1.4-.1 2.7-.2 4.1-.2 5.5-.1 10.9.1 16.4.6 2.7.3 5.4.8 8.1 1.3 2.7.6 5.3.6 8 0 2.7-.5 5.4-1 8.1-1.3 2.7-.3 5.4-.4 8.2-.5 2.7-.1 5.5-.2 8.2-.1 1.4.1 2.7.1 4.1.2.7.1 1.4.1 2 .2.7.2 1.4.2 2 .5zm-41.1 6.1c-.3 1.6-.8 3.2-1.4 4.8-.6 1.6-1.2 3.1-2.2 4.5-.5.7-1.4 1.2-2.2 1.4-.8.3-1.6.5-2.5.6-1.7.3-3.3.4-5 .5-3.4.1-6.8-.1-10-.8-1.6-.3-3.3-1-4.3-2.5-.5-.7-.7-1.6-.9-2.4-.2-.8-.4-1.6-.5-2.5-.3-1.7-.5-3.3-.6-5 0-.8-.1-1.7.2-2.6.4-.9 1.2-1.4 2.1-1.6 1.7-.5 3.4-.4 5.1-.4l5 .1c1.7.1 3.4.1 5 .2 1.7.1 3.4.3 5 .5 1.7.3 3.3.6 4.9 1.2.8.3 1.6.6 2.1 1.4.5.9.4 1.8.2 2.6zm-.1 0c.2-.8.3-1.7-.2-2.4s-1.3-1-2.1-1.3c-1.6-.5-3.2-.8-4.9-1-3.3-.5-6.7-.4-10-.5l-5-.1c-1.7-.1-3.4-.1-4.9.3-.8.2-1.5.7-1.8 1.3-.3.7-.2 1.6-.2 2.4 0 1.7.2 3.3.5 5 .1.8.3 1.7.5 2.5s.4 1.6.9 2.3c.4.7 1.1 1.3 1.8 1.7.7.4 1.5.6 2.3.8 3.3.7 6.7.7 10 .5 1.7-.1 3.3-.3 5-.5.8-.1 1.6-.3 2.4-.6.8-.2 1.5-.6 2-1.2 1-1.3 1.7-2.8 2.3-4.4.6-1.5 1.1-3.1 1.4-4.8zm37.3 7c-.2.8-.6 1.6-1.1 2.2-.6.7-1.3 1.1-2.1 1.4-1.6.6-3.3.9-4.9 1.1-3.3.4-6.7.3-10.1-.1-1.7-.2-3.3-.5-4.9-1.2-.4-.2-.8-.4-1.1-.7-.3-.3-.6-.7-.8-1-.4-.7-.8-1.5-1.2-2.2-.7-1.5-1.2-3.1-1.7-4.7-.2-.8-.5-1.6-.6-2.5-.1-.4-.1-.9.1-1.3.1-.4.4-.8.8-1.1.7-.5 1.5-.8 2.3-1.1.8-.2 1.6-.4 2.5-.6 1.7-.3 3.3-.6 5-.7 3.4-.2 6.7-.2 10.1-.3l2.5-.1c.8 0 1.7 0 2.5.1.9.1 1.7.2 2.5.6.4.2.8.5 1 .8.3.4.4.8.5 1.2.1 1.7-.1 3.4-.3 5.1-.2 1.8-.5 3.4-1 5.1zm0-.1c.4-1.6.7-3.3.9-4.9.2-1.7.3-3.4.1-5-.1-.8-.6-1.5-1.4-1.8-.7-.3-1.6-.5-2.4-.5-1.6-.1-3.3 0-5 0l-5 .1c-1.7.1-3.4 0-5 .2-1.7.1-3.3.3-5 .6-.8.2-1.6.3-2.4.6-.8.2-1.6.5-2.2 1-.7.5-.9 1.3-.8 2.1.1.8.3 1.6.5 2.4.4 1.6 1 3.2 1.7 4.7.3.8.7 1.5 1.2 2.2.2.3.5.7.8 1 .3.3.7.5 1 .6 1.5.6 3.2.8 4.9 1 3.3.3 6.7.4 10 .2 1.7-.2 3.3-.3 4.9-.9.8-.3 1.5-.8 2.1-1.4.5-.6.8-1.4 1.1-2.2z" fill="#070201" stroke-width="none" opacity="1"></path></g></g></g></g></g><rect id="svga-credit-rect" width="200" height="15" x="0" y="185" fill="#ecf0f1" opacity="0.5" style="display: none;"></rect><text id="svga-credit-text" font-family="Avenir Next, Roboto, Helvetica, Arial, sans-serif" font-size="10px" text-anchor="start" font-weight="400" size="10px" anchor="start" weight="400" fill="#333333" x="33.402061462402344" y="182.71133995056152" style="display: none;"><tspan id="SvgjsTspan11976" dy="13" x="33.402061462402344">Created on AvatarMaker.com</tspan></text></g><defs id="SvgjsDefs11928"><linearGradient id="SvgjsLinearGradient12216" x1="81.0335" y1="111.8772" x2="81.0335" y2="93.2499" gradientTransform="matrix(1 0 0 -1 0 202)" gradientUnits="userSpaceOnUse" class="svga-on-canvas-glasses-gradient-single-0-null"><stop id="SvgjsStop12217" stop-opacity="1" stop-color="#bfeaf2" offset="0" ></stop><stop id="SvgjsStop12218" stop-opacity="0.649" stop-color="#a1cae3" offset="0.351" ></stop><stop id="SvgjsStop12219" stop-opacity="0" stop-color="#6086c4" offset="1" ></stop></linearGradient><linearGradient id="SvgjsLinearGradient12221" x1="-1736.9666" y1="111.8772" x2="-1736.9666" y2="93.2499" gradientTransform="matrix(-1 0 0 -1 -1618 202)" gradientUnits="userSpaceOnUse" class="svga-on-canvas-glasses-gradient-single-1-null"><stop id="SvgjsStop12222" stop-opacity="1" stop-color="#bfeaf2" offset="0" ></stop><stop id="SvgjsStop12223" stop-opacity="0.649" stop-color="#a1cae3" offset="0.351" ></stop><stop id="SvgjsStop12224" stop-opacity="0" stop-color="#6086c4" offset="1" ></stop></linearGradient></defs></svg>